<svg xmlns="http://www.w3.org/2000/svg" width="1450" height="860" viewBox="0 0 1450 860">
<defs>
  <marker id="arrow_0f766e" viewBox="0 0 10 10" refX="8.5" refY="5" markerWidth="7" markerHeight="7" orient="auto-start-reverse">
    <path d="M 0 0 L 10 5 L 0 10 z" fill="#0f766e"/>
  </marker>
  <marker id="arrow_16a34a" viewBox="0 0 10 10" refX="8.5" refY="5" markerWidth="7" markerHeight="7" orient="auto-start-reverse">
    <path d="M 0 0 L 10 5 L 0 10 z" fill="#16a34a"/>
  </marker>
  <marker id="arrow_2563eb" viewBox="0 0 10 10" refX="8.5" refY="5" markerWidth="7" markerHeight="7" orient="auto-start-reverse">
    <path d="M 0 0 L 10 5 L 0 10 z" fill="#2563eb"/>
  </marker>
  <marker id="arrow_7c3aed" viewBox="0 0 10 10" refX="8.5" refY="5" markerWidth="7" markerHeight="7" orient="auto-start-reverse">
    <path d="M 0 0 L 10 5 L 0 10 z" fill="#7c3aed"/>
  </marker>
  <marker id="arrow_d97706" viewBox="0 0 10 10" refX="8.5" refY="5" markerWidth="7" markerHeight="7" orient="auto-start-reverse">
    <path d="M 0 0 L 10 5 L 0 10 z" fill="#d97706"/>
  </marker>
  <marker id="arrow_dc2626" viewBox="0 0 10 10" refX="8.5" refY="5" markerWidth="7" markerHeight="7" orient="auto-start-reverse">
    <path d="M 0 0 L 10 5 L 0 10 z" fill="#dc2626"/>
  </marker>
  <filter id="shadow" x="-10%" y="-10%" width="120%" height="120%">
    <feDropShadow dx="0" dy="5" stdDeviation="5" flood-color="#0f172a" flood-opacity="0.13"/>
  </filter>
</defs>
<rect width="100%" height="100%" fill="#fbfcfe"/>
<text x="54" y="62" font-family="Inter,Segoe UI,Arial,sans-serif" font-size="34" font-weight="800" fill="#14213d">Copilot mode decision tree</text>
<text x="54" y="95" font-family="Inter,Segoe UI,Arial,sans-serif" font-size="18" font-weight="500" fill="#526171">Pick the smallest mode that can finish the job.</text>
<path d="M 585 215 L 420 250" fill="none" stroke="#16a34a" stroke-width="3" marker-end="url(#arrow_16a34a)"/><rect x="422.5" y="198.5" width="160" height="30" rx="15" fill="#fbfcfe" stroke="none"/><text x="502.5" y="219.5" text-anchor="middle" font-family="Inter,Segoe UI,Arial,sans-serif" font-size="16" font-weight="700" fill="#16a34a">no</text>
<path d="M 725 285 L 725 365" fill="none" stroke="#d97706" stroke-width="3" marker-end="url(#arrow_d97706)"/><rect x="645.0" y="291.0" width="160" height="30" rx="15" fill="#fbfcfe" stroke="none"/><text x="725.0" y="312.0" text-anchor="middle" font-family="Inter,Segoe UI,Arial,sans-serif" font-size="16" font-weight="700" fill="#d97706">yes</text>
<path d="M 590 430 L 425 625" fill="none" stroke="#0f766e" stroke-width="3" marker-end="url(#arrow_0f766e)"/><rect x="427.5" y="493.5" width="160" height="30" rx="15" fill="#fbfcfe" stroke="none"/><text x="507.5" y="514.5" text-anchor="middle" font-family="Inter,Segoe UI,Arial,sans-serif" font-size="16" font-weight="700" fill="#0f766e">yes</text>
<path d="M 860 430 L 1015 430" fill="none" stroke="#2563eb" stroke-width="3" marker-end="url(#arrow_2563eb)"/><rect x="857.5" y="396.0" width="160" height="30" rx="15" fill="#fbfcfe" stroke="none"/><text x="937.5" y="417.0" text-anchor="middle" font-family="Inter,Segoe UI,Arial,sans-serif" font-size="16" font-weight="700" fill="#2563eb">no</text>
<path d="M 1150 500 L 1100 585" fill="none" stroke="#7c3aed" stroke-width="3" marker-end="url(#arrow_7c3aed)"/><rect x="1045.0" y="508.5" width="160" height="30" rx="15" fill="#fbfcfe" stroke="none"/><text x="1125.0" y="529.5" text-anchor="middle" font-family="Inter,Segoe UI,Arial,sans-serif" font-size="16" font-weight="700" fill="#7c3aed">yes</text>
<path d="M 1015 500 L 870 640" fill="none" stroke="#dc2626" stroke-width="3" marker-end="url(#arrow_dc2626)"/><rect x="862.5" y="536.0" width="160" height="30" rx="15" fill="#fbfcfe" stroke="none"/><text x="942.5" y="557.0" text-anchor="middle" font-family="Inter,Segoe UI,Arial,sans-serif" font-size="16" font-weight="700" fill="#dc2626">no/vague</text>
<polygon points="725.0,145 865,215.0 725.0,285 585,215.0" fill="#fef3c7" stroke="#d97706" stroke-width="2.5"/>
<text x="725.0" y="223.2" text-anchor="middle" font-family="Inter,Segoe UI,Arial,sans-serif" font-size="21" font-weight="800" fill="#14213d">Need code changes?</text>
<rect x="150" y="205" width="270" height="100" rx="16" fill="#dcfce7" stroke="#16a34a" stroke-width="2.5"/>
<text x="285.0" y="226.2" text-anchor="middle" font-family="Inter,Segoe UI,Arial,sans-serif" font-size="20" font-weight="600" fill="#14213d">ASK</text>
<text x="285.0" y="250.6" text-anchor="middle" font-family="Inter,Segoe UI,Arial,sans-serif" font-size="20" font-weight="600" fill="#14213d">1 call</text>
<text x="285.0" y="275.0" text-anchor="middle" font-family="Inter,Segoe UI,Arial,sans-serif" font-size="20" font-weight="600" fill="#14213d">questions +</text>
<text x="285.0" y="299.4" text-anchor="middle" font-family="Inter,Segoe UI,Arial,sans-serif" font-size="20" font-weight="600" fill="#14213d">explanations</text>
<polygon points="725.0,365 860,430.0 725.0,495 590,430.0" fill="#dbeafe" stroke="#2563eb" stroke-width="2.5"/>
<text x="725.0" y="425.6" text-anchor="middle" font-family="Inter,Segoe UI,Arial,sans-serif" font-size="20" font-weight="800" fill="#14213d">Single file</text>
<text x="725.0" y="450.0" text-anchor="middle" font-family="Inter,Segoe UI,Arial,sans-serif" font-size="20" font-weight="800" fill="#14213d">clear target?</text>
<rect x="165" y="575" width="260" height="100" rx="16" fill="#ccfbf1" stroke="#0f766e" stroke-width="2.5"/>
<text x="295.0" y="607.6" text-anchor="middle" font-family="Inter,Segoe UI,Arial,sans-serif" font-size="21" font-weight="600" fill="#14213d">EDIT</text>
<text x="295.0" y="633.2" text-anchor="middle" font-family="Inter,Segoe UI,Arial,sans-serif" font-size="21" font-weight="600" fill="#14213d">1-2 calls</text>
<text x="295.0" y="658.8" text-anchor="middle" font-family="Inter,Segoe UI,Arial,sans-serif" font-size="21" font-weight="600" fill="#14213d">targeted change</text>
<polygon points="1150.0,360 1285,430.0 1150.0,500 1015,430.0" fill="#ede9fe" stroke="#7c3aed" stroke-width="2.5"/>
<text x="1150.0" y="425.4" text-anchor="middle" font-family="Inter,Segoe UI,Arial,sans-serif" font-size="21" font-weight="800" fill="#14213d">Multi-file</text>
<text x="1150.0" y="451.0" text-anchor="middle" font-family="Inter,Segoe UI,Arial,sans-serif" font-size="21" font-weight="800" fill="#14213d">clear scope?</text>
<rect x="955" y="585" width="260" height="105" rx="16" fill="#fef3c7" stroke="#d97706" stroke-width="2.5"/>
<text x="1085.0" y="620.1" text-anchor="middle" font-family="Inter,Segoe UI,Arial,sans-serif" font-size="21" font-weight="600" fill="#14213d">AGENT</text>
<text x="1085.0" y="645.7" text-anchor="middle" font-family="Inter,Segoe UI,Arial,sans-serif" font-size="21" font-weight="600" fill="#14213d">5-25 steps</text>
<text x="1085.0" y="671.3" text-anchor="middle" font-family="Inter,Segoe UI,Arial,sans-serif" font-size="21" font-weight="600" fill="#14213d">multi-file work</text>
<rect x="590" y="610" width="280" height="110" rx="16" fill="#fee2e2" stroke="#dc2626" stroke-width="2.5"/>
<text x="730.0" y="647.6" text-anchor="middle" font-family="Inter,Segoe UI,Arial,sans-serif" font-size="21" font-weight="600" fill="#14213d">CLARIFY FIRST</text>
<text x="730.0" y="673.2" text-anchor="middle" font-family="Inter,Segoe UI,Arial,sans-serif" font-size="21" font-weight="600" fill="#14213d">plan / ask mode</text>
<text x="730.0" y="698.8" text-anchor="middle" font-family="Inter,Segoe UI,Arial,sans-serif" font-size="21" font-weight="600" fill="#14213d">then execute</text>
</svg>